<svg xmlns="http://www.w3.org/2000/svg" width="100" height="100" viewBox="0 0 100 100"><rect x="10" y="10" width="5" height="5" fill="#57428D" opacity="0.7" transform="rotate(15 12.5 12.5)"/><rect x="30" y="15" width="7" height="7" fill="#4965AD" opacity="0.5" transform="rotate(45 33.5 18.5)"/><circle cx="55" cy="20" r="4" fill="#6E8CD5" opacity="0.6"/><rect x="75" y="15" width="6" height="6" fill="#BF4AA8" opacity="0.7" transform="rotate(30 78 18)"/><rect x="15" y="35" width="8" height="8" fill="#4965AD" opacity="0.5" transform="rotate(60 19 39)"/><circle cx="40" cy="40" r="3" fill="#57428D" opacity="0.7"/><rect x="60" y="35" width="5" height="5" fill="#6E8CD5" opacity="0.6" transform="rotate(15 62.5 37.5)"/><circle cx="85" cy="40" r="5" fill="#57428D" opacity="0.5"/><rect x="10" y="60" width="6" height="6" fill="#BF4AA8" opacity="0.6" transform="rotate(45 13 63)"/><circle cx="35" cy="65" r="4" fill="#4965AD" opacity="0.7"/><rect x="55" y="60" width="7" height="7" fill="#57428D" opacity="0.5" transform="rotate(30 58.5 63.5)"/><circle cx="80" cy="65" r="3" fill="#6E8CD5" opacity="0.8"/><circle cx="15" cy="85" r="5" fill="#57428D" opacity="0.6"/><rect x="35" y="80" width="5" height="5" fill="#BF4AA8" opacity="0.7" transform="rotate(60 37.5 82.5)"/><circle cx="60" cy="85" r="4" fill="#4965AD" opacity="0.5"/><rect x="80" y="80" width="8" height="8" fill="#6E8CD5" opacity="0.6" transform="rotate(15 84 84)"/></svg>
